<?xml version="1.0" encoding="UTF-8" standalone="no"?><svg xmlns="http://www.w3.org/2000/svg" xmlns:xlink="http://www.w3.org/1999/xlink" contentStyleType="text/css" height="818px" preserveAspectRatio="none" style="width:721px;height:818px;background:#FFFFFF;" version="1.1" viewBox="0 0 721 818" width="721px" zoomAndPan="magnify"><defs/><g><ellipse cx="347.25" cy="20" fill="#222222" rx="10" ry="10" style="stroke:#222222;stroke-width:1.0;"/><rect fill="#F1F1F1" height="33.9688" rx="12.5" ry="12.5" style="stroke:#181818;stroke-width:0.5;" width="97" x="298.75" y="50"/><text fill="#000000" font-family="sans-serif" font-size="12" lengthAdjust="spacing" textLength="77" x="308.75" y="71.1387">Available car</text><rect fill="#555555" height="6" rx="2.5" ry="2.5" style="stroke:#555555;stroke-width:1.0;" width="282" x="206.25" y="159.6792"/><rect fill="#F1F1F1" height="33.9688" rx="12.5" ry="12.5" style="stroke:#181818;stroke-width:0.5;" width="136" x="220.25" y="185.6792"/><text fill="#000000" font-family="sans-serif" font-size="12" lengthAdjust="spacing" textLength="116" x="230.25" y="206.8179">Location prohibited</text><rect fill="#F1F1F1" height="33.9688" rx="12.5" ry="12.5" style="stroke:#181818;stroke-width:0.5;" width="90" x="384.25" y="185.6792"/><text fill="#000000" font-family="sans-serif" font-size="12" lengthAdjust="spacing" textLength="70" x="394.25" y="206.8179">Wait x days</text><rect fill="#555555" height="6" rx="2.5" ry="2.5" style="stroke:#555555;stroke-width:1.0;" width="282" x="206.25" y="239.6479"/><polygon fill="#F1F1F1" points="317.25,103.9688,377.25,103.9688,389.25,115.9688,377.25,127.9688,317.25,127.9688,305.25,115.9688,317.25,103.9688" style="stroke:#181818;stroke-width:0.5;"/><text fill="#000000" font-family="sans-serif" font-size="11" lengthAdjust="spacing" textLength="21" x="351.25" y="138.1792">yes</text><text fill="#000000" font-family="sans-serif" font-size="11" lengthAdjust="spacing" textLength="60" x="317.25" y="119.7769">blacklisted</text><text fill="#000000" font-family="sans-serif" font-size="11" lengthAdjust="spacing" textLength="14" x="291.25" y="113.3745">no</text><rect fill="#F1F1F1" height="33.9688" rx="12.5" ry="12.5" style="stroke:#181818;stroke-width:0.5;" width="89" x="302.75" y="287.6479"/><text fill="#000000" font-family="sans-serif" font-size="12" lengthAdjust="spacing" textLength="69" x="312.75" y="308.7866">Car for rent</text><rect fill="none" height="421.5044" style="stroke:#000000;stroke-width:1.5;" width="699.75" x="11" y="331.6167"/><path d="M102,331.6167 L102,340.9136 L92,350.9136 L11,350.9136 " fill="none" style="stroke:#000000;stroke-width:1.5;"/><text fill="#000000" font-family="sans-serif" font-size="14" lengthAdjust="spacing" textLength="81" x="14" y="345.6118">Rented Car</text><rect fill="#555555" height="6" rx="2.5" ry="2.5" style="stroke:#555555;stroke-width:1.0;" width="679.75" x="21" y="367.9136"/><rect fill="#F1F1F1" height="33.9688" rx="12.5" ry="12.5" style="stroke:#181818;stroke-width:0.5;" width="102" x="33" y="494.687"/><text fill="#000000" font-family="sans-serif" font-size="12" lengthAdjust="spacing" textLength="82" x="43" y="515.8257">Reserved Car</text><line style="stroke:#181818;stroke-width:1.5;" x1="70" x2="112.5" y1="559.6558" y2="559.6558"/><rect fill="#F1F1F1" height="33.9688" rx="12.5" ry="12.5" style="stroke:#181818;stroke-width:0.5;" width="29" x="55.5" y="581.1558"/><text fill="#000000" font-family="sans-serif" font-size="12" lengthAdjust="spacing" textLength="9" x="65.5" y="602.2944">H</text><line style="stroke:#181818;stroke-width:1.5;" x1="84" x2="112.5" y1="635.1245" y2="635.1245"/><polygon fill="#F1F1F1" points="260,406.7183,333,406.7183,345,418.7183,333,430.7183,260,430.7183,248,418.7183,260,406.7183" style="stroke:#181818;stroke-width:0.5;"/><text fill="#000000" font-family="sans-serif" font-size="11" lengthAdjust="spacing" textLength="73" x="260" y="422.5264">Checked Car</text><text fill="#000000" font-family="sans-serif" font-size="11" lengthAdjust="spacing" textLength="69" x="179" y="416.124">after 2 days</text><text fill="#000000" font-family="sans-serif" font-size="11" lengthAdjust="spacing" textLength="55" x="345" y="416.124">pickupCar</text><ellipse cx="159" cy="450.7183" rx="10" ry="10" style="stroke:#222222;stroke-width:1.5;fill:none;"/><line style="stroke:#222222;stroke-width:2.5;fill:none;" x1="152.8128" x2="165.1872" y1="444.5311" y2="456.9054"/><line style="stroke:#222222;stroke-width:2.5;fill:none;" x1="165.1872" x2="152.8128" y1="444.5311" y2="456.9054"/><rect fill="#F1F1F1" height="33.9688" rx="12.5" ry="12.5" style="stroke:#181818;stroke-width:0.5;" width="134" x="376.25" y="440.7183"/><text fill="#000000" font-family="sans-serif" font-size="12" lengthAdjust="spacing" textLength="114" x="386.25" y="461.8569">Car given to tenant</text><line style="stroke:#181818;stroke-width:1.5;" x1="270.25" x2="602.75" y1="550.7534" y2="550.7534"/><rect fill="#F1F1F1" height="33.9688" rx="12.5" ry="12.5" style="stroke:#181818;stroke-width:0.5;" width="95" x="222.75" y="572.2534"/><text fill="#000000" font-family="sans-serif" font-size="12" lengthAdjust="spacing" textLength="75" x="232.75" y="593.3921">Recalled Car</text><rect fill="#F1F1F1" height="33.9688" rx="12.5" ry="12.5" style="stroke:#181818;stroke-width:0.5;" width="168" x="345.75" y="572.2534"/><text fill="#000000" font-family="sans-serif" font-size="12" lengthAdjust="spacing" textLength="148" x="355.75" y="593.3921">Car with extended rental</text><rect fill="#F1F1F1" height="33.9688" rx="12.5" ry="12.5" style="stroke:#181818;stroke-width:0.5;" width="122" x="541.75" y="572.2534"/><text fill="#000000" font-family="sans-serif" font-size="12" lengthAdjust="spacing" textLength="102" x="551.75" y="593.3921">Car late to return</text><line style="stroke:#181818;stroke-width:1.5;" x1="270.25" x2="602.75" y1="626.2222" y2="626.2222"/><polygon fill="#F1F1F1" points="382.75,506.7534,503.75,506.7534,515.75,518.7534,503.75,530.7534,382.75,530.7534,370.75,518.7534,382.75,506.7534" style="stroke:#181818;stroke-width:0.5;"/><text fill="#000000" font-family="sans-serif" font-size="11" lengthAdjust="spacing" textLength="121" x="382.75" y="522.5615">Car in pending return</text><ellipse cx="443.25" cy="704.1211" rx="11" ry="11" style="stroke:#222222;stroke-width:1.0;fill:none;"/><ellipse cx="443.25" cy="704.1211" fill="#222222" rx="6" ry="6" style="stroke:#111111;stroke-width:1.0;"/><rect fill="#555555" height="6" rx="2.5" ry="2.5" style="stroke:#555555;stroke-width:1.0;" width="679.75" x="21" y="735.1211"/><rect fill="#F1F1F1" height="33.9688" rx="12.5" ry="12.5" style="stroke:#181818;stroke-width:0.5;" width="98" x="298.25" y="773.1211"/><text fill="#000000" font-family="sans-serif" font-size="12" lengthAdjust="spacing" textLength="78" x="308.25" y="794.2598">Returned Car</text><line style="stroke:#181818;stroke-width:1.0;" x1="347.25" x2="347.25" y1="30" y2="50"/><polygon fill="#181818" points="343.25,40,347.25,50,351.25,40,347.25,44" style="stroke:#181818;stroke-width:1.0;"/><line style="stroke:#181818;stroke-width:1.0;" x1="288.25" x2="288.25" y1="165.6792" y2="185.6792"/><polygon fill="#181818" points="284.25,175.6792,288.25,185.6792,292.25,175.6792,288.25,179.6792" style="stroke:#181818;stroke-width:1.0;"/><line style="stroke:#181818;stroke-width:1.0;" x1="429.25" x2="429.25" y1="165.6792" y2="185.6792"/><polygon fill="#181818" points="425.25,175.6792,429.25,185.6792,433.25,175.6792,429.25,179.6792" style="stroke:#181818;stroke-width:1.0;"/><line style="stroke:#181818;stroke-width:1.0;" x1="288.25" x2="288.25" y1="219.6479" y2="239.6479"/><polygon fill="#181818" points="284.25,229.6479,288.25,239.6479,292.25,229.6479,288.25,233.6479" style="stroke:#181818;stroke-width:1.0;"/><line style="stroke:#181818;stroke-width:1.0;" x1="429.25" x2="429.25" y1="219.6479" y2="239.6479"/><polygon fill="#181818" points="425.25,229.6479,429.25,239.6479,433.25,229.6479,429.25,233.6479" style="stroke:#181818;stroke-width:1.0;"/><line style="stroke:#181818;stroke-width:1.0;" x1="347.25" x2="347.25" y1="127.9688" y2="159.6792"/><polygon fill="#181818" points="343.25,149.6792,347.25,159.6792,351.25,149.6792,347.25,153.6792" style="stroke:#181818;stroke-width:1.0;"/><line style="stroke:#181818;stroke-width:1.0;" x1="347.25" x2="347.25" y1="245.6479" y2="255.6479"/><line style="stroke:#181818;stroke-width:1.0;" x1="347.25" x2="500.25" y1="255.6479" y2="255.6479"/><polygon fill="#181818" points="496.25,194.2612,500.25,184.2612,504.25,194.2612,500.25,190.2612" style="stroke:#181818;stroke-width:1.0;"/><line style="stroke:#181818;stroke-width:1.0;" x1="500.25" x2="500.25" y1="115.9688" y2="255.6479"/><line style="stroke:#181818;stroke-width:1.0;" x1="500.25" x2="389.25" y1="115.9688" y2="115.9688"/><polygon fill="#181818" points="399.25,111.9688,389.25,115.9688,399.25,119.9688,395.25,115.9688" style="stroke:#181818;stroke-width:1.0;"/><line style="stroke:#181818;stroke-width:1.0;" x1="305.25" x2="194.25" y1="115.9688" y2="115.9688"/><polygon fill="#181818" points="190.25,180.2612,194.25,190.2612,198.25,180.2612,194.25,184.2612" style="stroke:#181818;stroke-width:1.0;"/><line style="stroke:#181818;stroke-width:1.0;" x1="194.25" x2="194.25" y1="115.9688" y2="267.6479"/><line style="stroke:#181818;stroke-width:1.0;" x1="194.25" x2="347.25" y1="267.6479" y2="267.6479"/><line style="stroke:#181818;stroke-width:1.0;" x1="347.25" x2="347.25" y1="267.6479" y2="287.6479"/><polygon fill="#181818" points="343.25,277.6479,347.25,287.6479,351.25,277.6479,347.25,281.6479" style="stroke:#181818;stroke-width:1.0;"/><line style="stroke:#181818;stroke-width:1.0;" x1="347.25" x2="347.25" y1="83.9688" y2="103.9688"/><polygon fill="#181818" points="343.25,93.9688,347.25,103.9688,351.25,93.9688,347.25,97.9688" style="stroke:#181818;stroke-width:1.0;"/><line style="stroke:#181818;stroke-width:1.0;" x1="70" x2="70" y1="561.1558" y2="581.1558"/><polygon fill="#181818" points="66,571.1558,70,581.1558,74,571.1558,70,575.1558" style="stroke:#181818;stroke-width:1.0;"/><text fill="#000000" font-family="sans-serif" font-size="11" lengthAdjust="spacing" textLength="39" x="74" y="568.5615">Cancel</text><text fill="#000000" font-family="sans-serif" font-size="11" lengthAdjust="spacing" textLength="65" x="74" y="581.3662">reservation</text><line style="stroke:#181818;stroke-width:1.0;" x1="112.5" x2="112.5" y1="561.1558" y2="635.1245"/><polygon fill="#181818" points="108.5,625.1245,112.5,635.1245,116.5,625.1245,112.5,629.1245" style="stroke:#181818;stroke-width:1.0;"/><line style="stroke:#181818;stroke-width:1.0;" x1="84" x2="84" y1="528.6558" y2="559.6558"/><polygon fill="#181818" points="80,549.6558,84,559.6558,88,549.6558,84,553.6558" style="stroke:#181818;stroke-width:1.0;"/><line style="stroke:#181818;stroke-width:1.0;" x1="270.25" x2="270.25" y1="552.2534" y2="572.2534"/><polygon fill="#181818" points="266.25,562.2534,270.25,572.2534,274.25,562.2534,270.25,566.2534" style="stroke:#181818;stroke-width:1.0;"/><text fill="#000000" font-family="sans-serif" font-size="11" lengthAdjust="spacing" textLength="111" x="274.25" y="566.0615">1D before end rent</text><line style="stroke:#181818;stroke-width:1.0;" x1="429.75" x2="429.75" y1="552.2534" y2="572.2534"/><polygon fill="#181818" points="425.75,562.2534,429.75,572.2534,433.75,562.2534,429.75,566.2534" style="stroke:#181818;stroke-width:1.0;"/><text fill="#000000" font-family="sans-serif" font-size="11" lengthAdjust="spacing" textLength="82" x="433.75" y="566.0615">extend Return</text><line style="stroke:#181818;stroke-width:1.0;" x1="602.75" x2="602.75" y1="552.2534" y2="572.2534"/><polygon fill="#181818" points="598.75,562.2534,602.75,572.2534,606.75,562.2534,602.75,566.2534" style="stroke:#181818;stroke-width:1.0;"/><text fill="#000000" font-family="sans-serif" font-size="11" lengthAdjust="spacing" textLength="64" x="606.75" y="566.0615">return date</text><line style="stroke:#181818;stroke-width:1.0;" x1="270.25" x2="270.25" y1="606.2222" y2="626.2222"/><polygon fill="#181818" points="266.25,616.2222,270.25,626.2222,274.25,616.2222,270.25,620.2222" style="stroke:#181818;stroke-width:1.0;"/><line style="stroke:#181818;stroke-width:1.0;" x1="429.75" x2="429.75" y1="606.2222" y2="626.2222"/><polygon fill="#181818" points="425.75,616.2222,429.75,626.2222,433.75,616.2222,429.75,620.2222" style="stroke:#181818;stroke-width:1.0;"/><text fill="#000000" font-family="sans-serif" font-size="11" lengthAdjust="spacing" textLength="113" x="433.75" y="620.0303">update Return Date</text><line style="stroke:#181818;stroke-width:1.0;" x1="602.75" x2="602.75" y1="606.2222" y2="626.2222"/><polygon fill="#181818" points="598.75,616.2222,602.75,626.2222,606.75,616.2222,602.75,620.2222" style="stroke:#181818;stroke-width:1.0;"/><text fill="#000000" font-family="sans-serif" font-size="11" lengthAdjust="spacing" textLength="63" x="606.75" y="620.0303">notif Delay</text><line style="stroke:#181818;stroke-width:1.0;" x1="443.25" x2="443.25" y1="530.7534" y2="550.7534"/><polygon fill="#181818" points="439.25,540.7534,443.25,550.7534,447.25,540.7534,443.25,544.7534" style="stroke:#181818;stroke-width:1.0;"/><line style="stroke:#181818;stroke-width:1.0;" x1="443.25" x2="443.25" y1="627.7222" y2="639.7222"/><line style="stroke:#181818;stroke-width:1.0;" x1="443.25" x2="684.75" y1="639.7222" y2="639.7222"/><polygon fill="#181818" points="680.75,587.2378,684.75,577.2378,688.75,587.2378,684.75,583.2378" style="stroke:#181818;stroke-width:1.0;"/><line style="stroke:#181818;stroke-width:1.0;" x1="684.75" x2="684.75" y1="518.7534" y2="639.7222"/><line style="stroke:#181818;stroke-width:1.0;" x1="684.75" x2="515.75" y1="518.7534" y2="518.7534"/><polygon fill="#181818" points="525.75,514.7534,515.75,518.7534,525.75,522.7534,521.75,518.7534" style="stroke:#181818;stroke-width:1.0;"/><line style="stroke:#181818;stroke-width:1.0;" x1="370.75" x2="196.75" y1="518.7534" y2="518.7534"/><polygon fill="#181818" points="192.75,573.2378,196.75,583.2378,200.75,573.2378,196.75,577.2378" style="stroke:#181818;stroke-width:1.0;"/><line style="stroke:#181818;stroke-width:1.0;" x1="196.75" x2="196.75" y1="518.7534" y2="651.7222"/><line style="stroke:#181818;stroke-width:1.0;" x1="196.75" x2="443.25" y1="651.7222" y2="651.7222"/><line style="stroke:#181818;stroke-width:1.0;" x1="443.25" x2="443.25" y1="474.687" y2="506.7534"/><polygon fill="#181818" points="439.25,496.7534,443.25,506.7534,447.25,496.7534,443.25,500.7534" style="stroke:#181818;stroke-width:1.0;"/><line style="stroke:#181818;stroke-width:1.0;" x1="443.25" x2="443.25" y1="651.7222" y2="693.1211"/><polygon fill="#181818" points="439.25,683.1211,443.25,693.1211,447.25,683.1211,443.25,687.1211" style="stroke:#181818;stroke-width:1.0;"/><text fill="#000000" font-family="sans-serif" font-size="11" lengthAdjust="spacing" textLength="61" x="447.25" y="673.0269">returnCar()</text><line style="stroke:#181818;stroke-width:1.0;" x1="248" x2="159" y1="418.7183" y2="418.7183"/><line style="stroke:#181818;stroke-width:1.0;" x1="159" x2="159" y1="418.7183" y2="440.7183"/><polygon fill="#181818" points="155,430.7183,159,440.7183,163,430.7183,159,434.7183" style="stroke:#181818;stroke-width:1.0;"/><line style="stroke:#181818;stroke-width:1.0;" x1="345" x2="443.25" y1="418.7183" y2="418.7183"/><line style="stroke:#181818;stroke-width:1.0;" x1="443.25" x2="443.25" y1="418.7183" y2="440.7183"/><polygon fill="#181818" points="439.25,430.7183,443.25,440.7183,447.25,430.7183,443.25,434.7183" style="stroke:#181818;stroke-width:1.0;"/><line style="stroke:#181818;stroke-width:1.0;" x1="84" x2="84" y1="373.9136" y2="494.687"/><polygon fill="#181818" points="80,484.687,84,494.687,88,484.687,84,488.687" style="stroke:#181818;stroke-width:1.0;"/><line style="stroke:#181818;stroke-width:1.0;" x1="296.5" x2="296.5" y1="373.9136" y2="406.7183"/><polygon fill="#181818" points="292.5,396.7183,296.5,406.7183,300.5,396.7183,296.5,400.7183" style="stroke:#181818;stroke-width:1.0;"/><text fill="#000000" font-family="sans-serif" font-size="11" lengthAdjust="spacing" textLength="75" x="300.5" y="394.124">checkedCar()</text><line style="stroke:#181818;stroke-width:1.0;" x1="84" x2="84" y1="636.6245" y2="735.1211"/><polygon fill="#181818" points="80,725.1211,84,735.1211,88,725.1211,84,729.1211" style="stroke:#181818;stroke-width:1.0;"/><line style="stroke:#181818;stroke-width:1.0;" x1="347.25" x2="347.25" y1="321.6167" y2="367.9136"/><polygon fill="#181818" points="343.25,357.9136,347.25,367.9136,351.25,357.9136,347.25,361.9136" style="stroke:#181818;stroke-width:1.0;"/><line style="stroke:#181818;stroke-width:1.0;" x1="347.25" x2="347.25" y1="741.1211" y2="773.1211"/><polygon fill="#181818" points="343.25,763.1211,347.25,773.1211,351.25,763.1211,347.25,767.1211" style="stroke:#181818;stroke-width:1.0;"/><!--MD5=[a00897a3c71934f8650f0f8713545541]
@startuml
start
:Available car;
while (blacklisted) is (yes)
fork
:Location prohibited;
fork again
:Wait x days;
end fork
end while (no)
:Car for rent;
partition "Rented Car" {
fork
:Reserved Car;
split
-> Cancel 
reservation;
:H;
kill
split again
end split
fork again
-> checkedCar();
if (Checked Car) then (after 2 days)
end
else (pickupCar)
:Car given to tenant;
while (Car in pending return)
split
->1D before end rent;
:Recalled Car;
split again
-> extend Return;
:Car with extended rental;
->update Return Date;
split again
-> return date;
:Car late to return;
->notif Delay;
end split
end while
->returnCar();
stop
endif
end fork
}
:Returned Car;
@enduml

PlantUML version 1.2022.5(Sat Apr 30 10:55:52 UTC 2022)
(GPL source distribution)
Java Runtime: Java(TM) SE Runtime Environment
JVM: Java HotSpot(TM) 64-Bit Server VM
Default Encoding: UTF-8
Language: en
Country: US
--></g></svg>